Coordinates
version=1
nRows=4
nColumns=107
inDegrees=yes

Units are S.I. units (second, meters, Newtons, ...)
If the header above contains a line with 'inDegrees', this indicates whether rotational values are in degrees (yes) or radians (no).

endheader
time	sternoclavicular_r2	sternoclavicular_r3	unrotscap_r3	unrotscap_r2	acromioclavicular_r2	acromioclavicular_r3	acromioclavicular_r1	unrothum_r1	unrothum_r3	unrothum_r2	elv_angle	shoulder_elv	shoulder1_r2	shoulder_rot	elbow_flexion	pro_sup	deviation	flexion	proximal_distal_r1	proximal_distal_r3	cmc_flexion	cmc_abduction	mp_flexion	ip_flexion	mcp2_flexion	mcp2_abduction	pm2_flexion	md2_flexion	mcp3_flexion	mcp3_abduction	pm3_flexion	md3_flexion	mcp4_flexion	mcp4_abduction	pm4_flexion	md4_flexion	mcp5_flexion	mcp5_abduction	pm5_flexion	md5_flexion	bicpt_tx	bicpt_ty	bicpt_tz	bicpt2_tx	bicpt2_ty	bicpt2_tz	ptpt_tx	ptpt_ty	ptpt_tz	FCUpt_tx	FCUpt_ty	FCUpt_tz	EDCpt_tx	EDCpt_ty	EDCpt_tz	APLpt_tx	APLpt_ty	APLpt_tz	FPLpt_tx	FPLpt_ty	FPLpt_tz	FPLpt2_tx	FPLpt2_ty	FPLpt2_tz	PEC1pt2_tx	PEC1pt2_ty	PEC1pt2_tz	PEC1pt3_tx	PEC1pt3_ty	PEC1pt3_tz	PEC2pt2_tx	PEC2pt2_ty	PEC2pt2_tz	PEC2pt3_tx	PEC2pt3_ty	PEC2pt3_tz	PEC3pt2_tx	PEC3pt2_ty	PEC3pt2_tz	PEC3pt3_tx	PEC3pt3_ty	PEC3pt3_tz	DELT2pt2a_tx	DELT2pt2a_ty	DELT2pt2a_tz	DELT2pt2_tx	DELT2pt2_ty	DELT2pt2_tz	LAT1pt2_tx	LAT1pt2_ty	LAT1pt2_tz	LAT1pt3_tx	LAT1pt3_ty	LAT1pt3_tz	LAT2pt2_tx	LAT2pt2_ty	LAT2pt2_tz	LAT2pt3_tx	LAT2pt3_ty	LAT2pt3_tz	LAT3pt2_tx	LAT3pt2_ty	LAT3pt2_tz	LAT3pt3_tx	LAT3pt3_ty	LAT3pt3_tz
      1.06666667	     -0.31123823	      0.13182583	     -0.13182583	      0.31123823	     -0.06301941	      0.50930072	      0.22892717	     -0.22892717	     -0.50930072	      0.06301941	    101.51267195	     73.68841851	     -1.77173036	    -38.47448287	     32.07025180	     83.31998615	      0.34341571	     -0.69445929	      0.36953410	     -0.34722965	     39.28307597	    -21.22839025	     -2.94657792	      2.73900543	     69.38942261	     13.51878333	     71.72879582	     79.78217984	     79.90782730	      3.64153585	     75.99588348	     52.40634959	     77.53674620	    -13.11343110	     83.72967226	     41.42304990	     84.51503223	    -14.28003222	     78.96358489	      5.47692193	      0.00096078	     -0.03127574	     -0.00489207	      0.01450873	     -0.01891204	     -0.00152996	      0.00139359	     -0.06888083	     -0.00676187	      0.01243124	     -0.18232747	      0.00001268	     -0.00999837	      0.00343205	     -0.00067311	      0.00030665	      0.00012266	      0.00061331	      0.00039252	      0.00117755	      0.00066237	     -0.00001126	     -0.00012477	     -0.00014972	      0.00241534	      0.00847418	      0.00589508	     -0.00790104	      0.01907713	     -0.01809462	      0.00241534	      0.00847418	      0.00589508	      0.00053219	      0.01768524	     -0.00929294	      0.00385299	      0.00471238	      0.01573087	      0.00000000	      0.00725868	      0.00000000	     -0.00691853	     -0.03197261	     -0.00598203	      0.02215449	     -0.00105548	     -0.01202488	     -0.00085970	      0.01441019	     -0.00589508	      0.00237441	      0.02079653	     -0.01719398	     -0.00577226	      0.01248610	     -0.00528101	     -0.01203579	      0.02636410	     -0.02951633	     -0.02259780	      0.01395987	     -0.00708228	     -0.01498332	      0.03045791	     -0.03688518
      1.10000000	     -0.31083627	      0.13165557	     -0.13165557	      0.31083627	     -0.06293802	      0.50864295	      0.22863151	     -0.22863151	     -0.50864295	      0.06293802	    101.58071044	     73.59324960	     -1.77291785	    -38.69666186	     32.27254376	     84.02076717	      0.34426955	     -0.65245511	      0.37021163	     -0.32622756	     38.86941439	    -20.91630516	     -3.78403341	      2.48346807	     63.98092602	     13.53818921	     67.33464850	     78.26539505	     74.38457931	      4.02548104	     72.75918760	     50.66710794	     71.96979787	    -12.79058559	     79.65032918	     40.46352364	     78.18295472	    -14.29603642	     73.96692262	      5.49296495	      0.00096748	     -0.03129893	     -0.00489580	      0.01444002	     -0.01896699	     -0.00141224	      0.00134181	     -0.06891432	     -0.00681832	      0.01251124	     -0.18230420	      0.00003076	     -0.01008247	      0.00347000	     -0.00069473	      0.00031106	      0.00012443	      0.00062213	      0.00039816	      0.00119448	      0.00067190	     -0.00001164	     -0.00013239	     -0.00015886	      0.00241223	      0.00846323	      0.00588746	     -0.00789084	      0.01905249	     -0.01807125	      0.00241223	      0.00846323	      0.00588746	      0.00053151	      0.01766239	     -0.00928093	      0.00384930	      0.00470630	      0.01572148	      0.00000000	      0.00723983	      0.00000000	     -0.00690959	     -0.03193132	     -0.00596637	      0.02222743	     -0.00106352	     -0.01215330	     -0.00085859	      0.01439158	     -0.00588746	      0.00237134	      0.02076967	     -0.01717177	     -0.00576481	      0.01246998	     -0.00527419	     -0.01202024	      0.02633005	     -0.02947821	     -0.02256862	      0.01394184	     -0.00707313	     -0.01496397	      0.03041857	     -0.03683754
      1.13333333	     -0.31101092	      0.13172954	     -0.13172954	      0.31101092	     -0.06297338	      0.50892874	      0.22875996	     -0.22875996	     -0.50892874	      0.06297338	    101.45499353	     73.63459867	     -1.77072368	    -38.01191714	     32.37697612	     83.86884853	      0.35369652	     -0.58596602	      0.37761976	     -0.29298301	     38.56681423	    -20.56565909	     -4.48093931	      2.08142257	     57.25701728	     13.54873229	     61.78792622	     76.20095493	     67.71320772	      4.48963130	     68.00726164	     48.22685119	     64.82841598	    -12.08910840	     74.42974609	     39.17334855	     70.05733410	    -14.31388238	     67.77102430	      5.47326809	      0.00097093	     -0.03131090	     -0.00489773	      0.01445503	     -0.01899536	     -0.00143783	      0.00135304	     -0.06890706	     -0.00680609	      0.01249388	     -0.18230926	      0.00002680	     -0.01006424	      0.00346176	     -0.00069001	      0.00031199	      0.00012480	      0.00062398	      0.00039935	      0.00119804	      0.00067390	     -0.00001188	     -0.00013784	     -0.00016541	      0.00241358	      0.00846799	      0.00589077	     -0.00789527	      0.01906320	     -0.01808140	      0.00241358	      0.00846799	      0.00589077	      0.00053181	      0.01767232	     -0.00928615	      0.00385090	      0.00470894	      0.01572556	      0.00000000	      0.00724801	      0.00000000	     -0.00691348	     -0.03194926	     -0.00597317	      0.02200064	     -0.00103878	     -0.01175886	     -0.00085907	      0.01439967	     -0.00589077	      0.00237267	      0.02078134	     -0.01718142	     -0.00576805	      0.01247698	     -0.00527715	     -0.01202699	      0.02634485	     -0.02949477	     -0.02258130	      0.01394968	     -0.00707711	     -0.01497238	      0.03043566	     -0.03685824
      1.16666667	     -0.30914984	      0.13094128	     -0.13094128	      0.30914984	     -0.06259655	      0.50588333	      0.22739108	     -0.22739108	     -0.50588333	      0.06259655	    101.70898357	     73.19397291	     -1.77515664	    -39.39196848	     33.09262726	     84.94502726	      0.34024902	     -0.51253467	      0.36700784	     -0.25626733	     37.66604783	    -19.82261571	     -4.71790121	      2.71478138	     49.21787533	     13.52355305	     53.05508923	     70.99149247	     58.55696553	      4.70850031	     61.46677457	     44.65886095	     55.49472851	    -10.60436475	     66.58023006	     36.95085057	     59.86668058	    -14.32856471	     56.76124021	      5.52287030	      0.00099460	     -0.03139292	     -0.00491094	      0.01434768	     -0.01918977	     -0.00125592	      0.00127352	     -0.06895848	     -0.00689278	      0.01261698	     -0.18227330	      0.00005516	     -0.01019338	      0.00352029	     -0.00072364	      0.00030440	      0.00012176	      0.00060881	      0.00038964	      0.00116891	      0.00065751	     -0.00001244	     -0.00015347	     -0.00018416	      0.00239914	      0.00841731	      0.00585552	     -0.00784803	      0.01894912	     -0.01797320	      0.00239914	      0.00841731	      0.00585552	      0.00052862	      0.01756657	     -0.00923058	      0.00383378	      0.00468076	      0.01568184	      0.00000000	      0.00716100	      0.00000000	     -0.00687211	     -0.03175808	     -0.00590087	      0.02245155	     -0.00108874	     -0.01255797	     -0.00085393	      0.01431350	     -0.00585552	      0.00235847	      0.02065698	     -0.01707861	     -0.00573353	      0.01240232	     -0.00524557	     -0.01195503	      0.02618720	     -0.02931828	     -0.02244617	      0.01386620	     -0.00703476	     -0.01488279	      0.03025353	     -0.03663768
